<svg fill="#000000" version="1.1" id="Layer_1" xmlns="http://www.w3.org/2000/svg" xmlns:xlink="http://www.w3.org/1999/xlink"
	 viewBox="0 0 512 512" xml:space="preserve">
<g>
	<g>
		<path fill="#e1bdb5" d="M329.956,145.244V51.2c0-28.232-22.968-51.2-51.2-51.2h-45.511c-28.232,0-51.2,22.968-51.2,51.2v94.044
			c-7.223,12.522-11.378,27.025-11.378,42.489V512h170.667V187.733C341.333,172.269,337.178,157.765,329.956,145.244z M216.178,51.2
			c0-9.411,7.656-17.067,17.067-17.067h45.511c9.411,0,17.067,7.656,17.067,17.067v73.956h-22.756V96.711h-34.133v28.444h-22.756
			V51.2z M307.2,477.867H204.8V187.733c0-10.518,3.191-20.304,8.652-28.444h85.097c5.46,8.141,8.652,17.927,8.652,28.444V477.867z"
			/>
	</g>
</g>
<g>
	<g>
		<polygon fill="#e1bdb5" points="290.133,301.511 221.867,301.87 221.867,336.003 290.313,335.644 		"/>
	</g>
</g>
<g>
	<g>
		<rect fill="#e1bdb5" x="233.46" y="358.558" transform="matrix(1 -0.004 0.004 1 -1.5002 1.0277)" width="45.51" height="34.134"/>
	</g>
</g>
<g>
	<g>
		<rect fill="#e1bdb5" x="239.151" y="238.765" transform="matrix(0.004 -1 1 0.004 -6.3256 516.6897)" width="34.134" height="45.51"/>
	</g>
</g>
</svg>