<svg fill="#000000" height="800px" width="800px" version="1.1" id="Layer_1" xmlns="http://www.w3.org/2000/svg" xmlns:xlink="http://www.w3.org/1999/xlink"
	 viewBox="0 0 511.998 511.998" xml:space="preserve">
<g>
	<g>
		<path fill="#eaa4a4" d="M384.57,404.636c-19.152-8.077-41.308,0.931-49.387,20.085c-8.079,19.154,0.931,41.309,20.085,49.386
			c4.769,2.011,9.722,2.964,14.601,2.964c14.711,0,28.719-8.664,34.787-23.049C412.732,434.87,403.723,412.715,384.57,404.636z
			 M387.165,446.646c-4.011,9.51-15.012,13.981-24.52,9.972c-4.606-1.942-8.18-5.563-10.064-10.194
			c-1.884-4.632-1.851-9.719,0.091-14.325c3.013-7.142,9.967-11.443,17.272-11.443c2.422,0,4.882,0.473,7.25,1.472
			C386.702,426.136,391.175,437.137,387.165,446.646z"/>
	</g>
</g>
<g>
	<g>
		<path fill="#eaa4a4" d="M437.191,412.014c-7.308-17.969-21.176-32.018-39.05-39.556c-22.477-9.479-47.089-6.726-66.42,5.202l-61.744-150.744
			c-1.907-4.654-7.113-7.012-11.866-5.378c-4.573,1.573-9.597,1.086-13.783-1.332c-4.187-2.417-7.118-6.526-8.044-11.271
			l-1.208-6.197c-0.003-0.015-0.006-0.03-0.009-0.047L200.365,24.741l46.844,111.452c0.001,0.005,0.004,0.009,0.006,0.014
			l30.274,72.029c0.005,0.013,0.01,0.025,0.015,0.038L331.309,337.4c2.031,4.831,7.593,7.103,12.427,5.072
			c4.831-2.031,7.103-7.594,5.072-12.427l-52.703-126.507l35.344-181.242c2.087-9.417-3.036-18.377-12.239-21.353
			c-9.267-2.998-18.728,1.344-22.502,10.321l-40.709,96.854l-40.709-96.854c-3.772-8.976-13.235-13.321-22.501-10.321
			c-9.205,2.976-14.327,11.938-12.239,21.355l35.342,181.239l-68.669,163.377c-11.271-0.812-22.654,1.022-33.367,5.541
			c-17.874,7.539-31.741,21.587-39.049,39.556c-7.308,17.969-7.18,37.709,0.358,55.582c6.754,16.014,19.036,29.085,34.583,36.806
			c10.179,5.057,21.249,7.598,32.336,7.596c9.581,0,19.178-1.898,28.22-5.712c17.873-7.539,31.741-21.588,39.049-39.557
			s7.18-37.709-0.358-55.582c-3.289-7.796-7.817-14.828-13.367-20.889l49.384-120.567c1.987-4.85-0.335-10.393-5.186-12.38
			c-4.852-1.987-10.393,0.337-12.38,5.186l-47.153,115.122c-3.431-2.113-7.049-3.972-10.855-5.52
			c-1.087-0.442-2.182-0.854-3.281-1.243l59.574-141.738c2.57,2.962,5.633,5.519,9.106,7.523c6.28,3.627,13.441,5.221,20.532,4.682
			l61.021,148.978c-5.484,5.972-10.058,12.957-13.386,20.844c-15.562,36.896,1.794,79.576,38.692,95.139
			c9.044,3.814,18.639,5.714,28.22,5.714c11.086,0,22.156-2.542,32.336-7.598c15.547-7.723,27.828-20.794,34.583-36.806
			C444.373,449.723,444.499,429.983,437.191,412.014z M311.626,24.774l-28.732,147.335l-16.601-39.497L311.626,24.774z
			 M177.729,399.258c0.161,0.161,0.333,0.311,0.506,0.462c5.668,5.162,10.202,11.531,13.269,18.806
			c5.569,13.202,5.663,27.783,0.264,41.055c-5.397,13.273-15.641,23.648-28.842,29.218c-14.409,6.079-30.713,5.57-44.737-1.396
			c-11.479-5.701-20.547-15.355-25.536-27.183c-5.569-13.202-5.663-27.783-0.264-41.055c5.397-13.272,15.641-23.648,28.842-29.216
			c6.711-2.831,13.773-4.246,20.843-4.246c6.84,0,13.686,1.326,20.213,3.981C168.03,392.018,173.227,395.262,177.729,399.258z
			 M419.344,460.219c-4.988,11.828-14.058,21.482-25.536,27.183c-14.022,6.965-30.327,7.472-44.736,1.396
			c-27.252-11.495-40.073-43.02-28.577-70.272c8.633-20.468,28.563-32.795,49.497-32.795c6.94,0,13.991,1.355,20.775,4.218
			c13.202,5.568,23.445,15.945,28.843,29.216C425.007,432.437,424.913,447.017,419.344,460.219z"/>
	</g>
</g>
<g>
	<g>
		<path fill="#eaa4a4" d="M176.816,424.721c-8.078-19.154-30.234-28.162-49.386-20.085c-9.279,3.914-16.477,11.205-20.271,20.534
			c-3.794,9.328-3.727,19.575,0.186,28.853c3.914,9.279,11.205,16.477,20.534,20.271c4.587,1.867,9.397,2.798,14.205,2.798
			c4.968,0,9.934-0.996,14.647-2.984c9.278-3.914,16.477-11.205,20.271-20.534C180.795,444.246,180.728,434,176.816,424.721z
			 M159.418,446.422c-1.883,4.631-5.458,8.252-10.065,10.196c-4.606,1.942-9.693,1.977-14.325,0.092
			c-4.631-1.883-8.252-5.458-10.194-10.064s-1.975-9.693-0.092-14.325c1.883-4.631,5.458-8.252,10.065-10.196
			c2.368-0.998,4.826-1.472,7.248-1.472c7.303,0,14.258,4.302,17.271,11.443C161.268,436.704,161.301,441.791,159.418,446.422z"/>
	</g>
</g>
<g>
	<g>
		<circle fill="#eaa4a4" cx="256.971" cy="197.686" r="9.491"/>
	</g>
</g>
</svg>